<svg xmlns="http://www.w3.org/2000/svg" viewBox="0 30 240 150" width="240" height="150" fill="none" stroke-width="1" stroke-linecap="round" stroke-linejoin="round">
<title>A message on its way to the Mission LLM team</title>
<!-- Contact page drawing: a message card in the answer panel's projection, a dotted floor route along the two isometric axes, and the install drawing's top two plates with the flat ML mark. Outlines mist-600, inner lines mist-300 and mist-400; the node is the only color. Generated by build/iso.cjs. -->
<g transform="matrix(0.54 0 0 0.54 113.83 75.83)" stroke-width="1.8"><polygon points="125,66 215.07,118 215.07,132 125,184 34.93,132 34.93,118" fill="#F8FAFC" stroke="#47546F"/><line x1="125" y1="170" x2="215.07" y2="118" stroke="#CCD4E5"/><line x1="125" y1="170" x2="34.93" y2="118" stroke="#CCD4E5"/><line x1="125" y1="170" x2="125" y2="184" stroke="#CCD4E5"/><g transform="matrix(0.87 0.5 0 1 34.93 118)"><circle cx="10" cy="7" r="1.8" stroke="#47546F"/><line x1="17" y1="7" x2="38" y2="7" stroke="#CCD4E5"/></g><line transform="matrix(0.87 -0.5 0 1 125 170)" x1="40" y1="3" x2="40" y2="11" stroke="#CCD4E5"/><line transform="matrix(0.87 -0.5 0 1 125 170)" x1="53" y1="3" x2="53" y2="11" stroke="#CCD4E5"/><line transform="matrix(0.87 -0.5 0 1 125 170)" x1="66" y1="3" x2="66" y2="11" stroke="#CCD4E5"/><line transform="matrix(0.87 -0.5 0 1 125 170)" x1="79" y1="3" x2="79" y2="11" stroke="#CCD4E5"/><line transform="matrix(0.87 -0.5 0 1 125 170)" x1="92" y1="3" x2="92" y2="11" stroke="#CCD4E5"/><line x1="215.07" y1="118" x2="215.07" y2="94" stroke="#92A0BC" stroke-dasharray="1.5 3"/><line x1="125" y1="170" x2="125" y2="146" stroke="#92A0BC" stroke-dasharray="1.5 3"/><line x1="34.93" y1="118" x2="34.93" y2="94" stroke="#92A0BC" stroke-dasharray="1.5 3"/><polygon points="125,28 215.07,80 215.07,94 125,146 34.93,94 34.93,80" fill="#F8FAFC" stroke="#47546F"/><line x1="125" y1="132" x2="215.07" y2="80" stroke="#CCD4E5"/><line x1="125" y1="132" x2="34.93" y2="80" stroke="#CCD4E5"/><line x1="125" y1="132" x2="125" y2="146" stroke="#CCD4E5"/><g transform="matrix(0.87 0.5 0 1 34.93 80)"><circle cx="10" cy="7" r="1.8" stroke="#47546F"/><line x1="17" y1="7" x2="38" y2="7" stroke="#CCD4E5"/></g><rect transform="matrix(0.87 0.5 -0.87 0.5 125 28)" x="22" y="22" width="60" height="60" rx="8" stroke="#CCD4E5"/><path d="M99.92 89.7L99.92 70.3L107.76 70.3L117.29 75.77L112.85 78.32L106.79 74.84L106.79 89.7Z" fill="#F8FAFC" stroke="#47546F"/><path d="M132.84 89.7L150.08 89.7L150.08 86.03L139.71 86.03L139.71 70.3L131.87 70.3L122.35 75.77L126.78 78.32L132.84 74.84Z" fill="#F8FAFC" stroke="#47546F"/><path d="M119.82 77.02L124.6 79.78L119.82 82.53L115.03 79.78Z" fill="#2B63E0" stroke="#2B63E0"/></g>
<g transform="matrix(0.94 0.34 0 1 6 40)">
<rect x="3.5" y="-3.2" width="112" height="78" rx="6" fill="#F8FAFC" stroke="#CCD4E5"/>
<rect width="112" height="78" rx="6" fill="#F8FAFC" stroke="#92A0BC"/>
<circle cx="12" cy="12" r="4.2" stroke="#47546F"/><path d="M20 10H48" stroke="#47546F" stroke-width="1.4"/><path d="M20 15H40" stroke="#CCD4E5"/>
<path d="M0 23H112" stroke="#CCD4E5"/>
<path d="M10 32H100M10 39H96M10 46H72" stroke="#92A0BC"/>
<rect x="72" y="56" width="30" height="12" rx="4" fill="#F8FAFC" stroke="#47546F"/><path d="M80 62H92M89 59L92 62L89 65" stroke="#47546F"/>
</g>
<path d="M58.64 137.04L100.49 161.2L132.52 142.71" stroke="#92A0BC" stroke-dasharray="1.5 3"/><circle cx="58.64" cy="137.04" r="1.9" fill="#F8FAFC" stroke="#47546F"/><circle cx="100.49" cy="161.2" r="1.9" fill="#F8FAFC" stroke="#47546F"/><circle cx="132.52" cy="142.71" r="1.9" fill="#F8FAFC" stroke="#47546F"/>
</svg>
