<svg xmlns="http://www.w3.org/2000/svg" viewBox="0 0 250 250" width="250" height="250" fill="none" stroke-width="1" stroke-linecap="round" stroke-linejoin="round">
<title>Telemetry switched off in the Mission LLM settings</title>
<!-- After you install, step 4. Everything in the gentle panel skew of the upload panel: a settings panel with three rows, the middle one with its toggle off. A dotted run leaves that row and stops at a double barrier, short of a dashed card holding a small solid bar chart, the outside analytics service. Outlines mist-600, inner lines mist-300, no text. -->
<g transform="matrix(1.1 0 0 1.1 -12.5 -12.5)" stroke-width="0.91">
<rect transform="matrix(0.94 0.34 0 1 36 41.6)" x="154" y="50.0" width="40" height="52" rx="5" fill="#F8FAFC" stroke="#92A0BC" stroke-dasharray="1.5 3"/>
<rect transform="matrix(0.94 0.34 0 1 32 44)" x="154" y="50.0" width="40" height="52" rx="5" fill="#F8FAFC" stroke="#92A0BC" stroke-dasharray="1.5 3"/>
<g transform="matrix(0.94 0.34 0 1 32 44)" stroke="#92A0BC" stroke-width="0.9"><rect x="163" y="80" width="5" height="10" rx="1" fill="#E6ECF8"/><rect x="171" y="70" width="5" height="20" rx="1" fill="#E6ECF8"/><rect x="179" y="76" width="5" height="14" rx="1" fill="#E6ECF8"/><path d="M161 94H187"/></g>
<rect transform="matrix(0.94 0.34 0 1 36 41.6)" width="124" height="124" rx="7" fill="#F8FAFC" stroke="#CCD4E5"/>
<rect transform="matrix(0.94 0.34 0 1 32 44)" width="124" height="124" rx="7" fill="#F8FAFC" stroke="#92A0BC"/>
<g transform="matrix(0.94 0.34 0 1 32 44)"><path d="M10 11h11M10 16h11" stroke="#47546F" stroke-width="0.8"/><circle cx="13.5" cy="11" r="1.6" fill="#F8FAFC" stroke="#47546F" stroke-width="0.8"/><circle cx="17.5" cy="16" r="1.6" fill="#F8FAFC" stroke="#47546F" stroke-width="0.8"/><path d="M27 13.5H52" stroke="#47546F" stroke-width="1.4"/><circle cx="102" cy="13.5" r="1.4" stroke="#47546F" stroke-width="0.7"/><circle cx="107" cy="13.5" r="1.4" stroke="#47546F" stroke-width="0.7"/><circle cx="112" cy="13.5" r="1.4" stroke="#47546F" stroke-width="0.7"/><path d="M0 23H124" stroke="#CCD4E5"/><rect x="10" y="32" width="104" height="24" rx="5" stroke="#CCD4E5"/><path d="M18 41H48" stroke="#47546F" stroke-width="1.4"/><path d="M18 47H74" stroke="#CCD4E5" stroke-width="1.4"/><path d="M102 41l3 3l-3 3" stroke="#92A0BC"/><rect x="10" y="64" width="104" height="24" rx="5" stroke="#CCD4E5"/><path d="M18 73H42" stroke="#47546F" stroke-width="1.4"/><path d="M18 79H64" stroke="#CCD4E5" stroke-width="1.4"/><rect x="90" y="70" width="22" height="12" rx="6" stroke="#92A0BC"/><circle cx="96" cy="76" r="4.5" fill="#F8FAFC" stroke="#47546F"/><rect x="10" y="96" width="104" height="24" rx="5" stroke="#CCD4E5"/><path d="M18 105H52" stroke="#47546F" stroke-width="1.4"/><path d="M18 111H68" stroke="#CCD4E5" stroke-width="1.4"/><path d="M102 105l3 3l-3 3" stroke="#92A0BC"/></g>
<path transform="matrix(0.94 0.34 0 1 32 44)" d="M124 76H138" stroke="#92A0BC" stroke-dasharray="1.5 3"/>
<path transform="matrix(0.94 0.34 0 1 32 44)" d="M141 67V85M145 67V85" stroke="#47546F" stroke-width="1.6"/>
<circle cx="148.56" cy="162.16" r="1.8" fill="#F8FAFC" stroke="#47546F"/>
</g>
</svg>
